<svg width="98" height="152" viewBox="0 0 98 152" fill="none" xmlns="http://www.w3.org/2000/svg">
<ellipse opacity="0.2" cx="49" cy="120.833" rx="49" ry="17" fill="#FF7900"/>
<path d="M49.3913 123.72C43.3113 123.72 38.1513 122.68 33.9113 120.6C29.6713 118.52 26.4713 115.84 24.3113 112.56C22.1513 109.2 21.0713 105.68 21.0713 102C21.0713 99.2 21.7513 97.32 23.1113 96.36C24.4713 95.4 26.3913 94.92 28.8713 94.92C32.1513 94.92 34.2713 95.52 35.2313 96.72C36.1913 97.84 36.6712 99.2 36.6712 100.8C36.6712 102.8 37.1913 104.48 38.2313 105.84C39.3513 107.2 40.8313 108.24 42.6713 108.96C44.5913 109.68 46.7113 110.04 49.0312 110.04C53.0313 110.04 56.1513 108.96 58.3913 106.8C60.6313 104.64 61.7513 101.28 61.7513 96.72V94.44C61.7513 89.88 60.6313 86.52 58.3913 84.36C56.1513 82.12 53.1113 81 49.2713 81H31.3913C28.9913 81 27.3513 80.44 26.4713 79.32C25.5913 78.2 25.1513 76.72 25.1513 74.88C25.1513 74.32 25.1513 73.8 25.1513 73.32C25.2313 72.84 25.3113 72.32 25.3913 71.76L28.3913 40.32C28.4713 38.72 28.7513 37.48 29.2313 36.6C29.7913 35.72 30.5113 35.28 31.3913 35.28H68.3513C69.9513 35.28 71.1113 36 71.8313 37.44C72.6313 38.8 73.0313 40.36 73.0313 42.12C73.0313 43.8 72.6313 45.36 71.8313 46.8C71.1113 48.24 69.9513 48.96 68.3513 48.96H41.3513L39.9113 68.76H49.2713C54.4713 68.76 59.1913 69.6 63.4313 71.28C67.6713 72.88 71.0313 75.6 73.5113 79.44C76.0713 83.2 77.3513 88.2 77.3513 94.44V96.72C77.3513 103.2 76.0713 108.44 73.5113 112.44C71.0313 116.44 67.6713 119.32 63.4313 121.08C59.1913 122.84 54.5113 123.72 49.3913 123.72Z" fill="#794023"/>
</svg>
