<svg width="269" height="364" viewBox="0 0 269 364" fill="none" xmlns="http://www.w3.org/2000/svg">
<path d="M73 299.088C73 284.68 84.6799 273 99.0879 273V273C116.518 273 129.046 289.765 124.106 306.481L115.832 334.482C114.133 340.232 110.147 345.032 104.807 347.758V347.758C90.2597 355.187 73 344.62 73 328.286V299.088Z" fill="#66341C"/>
<path d="M201 299.445C201 284.84 189.16 273 174.555 273V273C156.837 273 144.131 290.083 149.227 307.052L157.412 334.303C159.173 340.166 163.27 345.045 168.74 347.793V347.793C183.547 355.232 201 344.468 201 327.898V299.445Z" fill="#66341C"/>
<path d="M78.1737 192.684C87.1348 183.536 102.697 189.306 103.53 202.084L103.911 207.937C104.333 214.418 98.6304 219.615 92.2164 218.594V218.594C88.3919 217.985 84.5551 219.611 82.3329 222.783L57.8444 257.735C52.3162 265.625 41.0289 266.67 34.1465 259.928V259.928C27.9904 253.898 27.8884 244.019 33.9188 237.863L78.1737 192.684Z" fill="#794023"/>
<path d="M193.704 192.684C184.743 183.536 169.181 189.306 168.348 202.084L167.967 207.937C167.545 214.418 173.248 219.615 179.662 218.594V218.594C183.486 217.985 187.323 219.611 189.545 222.783L214.033 257.735C219.562 265.625 230.849 266.67 237.731 259.928V259.928C243.888 253.898 243.989 244.019 237.959 237.863L193.704 192.684Z" fill="#794023"/>
<path fill-rule="evenodd" clip-rule="evenodd" d="M106.01 309H136.307H136.998H167.294C192.057 309 210.871 286.727 206.731 262.313L196.314 200.88C195.487 196.002 193.762 191.32 191.227 187.072L176.569 162.505C169.352 150.409 156.304 143 142.219 143H136.998H136.307H131.086C117 143 103.953 150.409 96.7353 162.505L82.077 187.072C79.5421 191.32 77.8174 196.002 76.9903 200.88L66.5732 262.313C62.4332 286.727 81.2469 309 106.01 309Z" fill="#794023"/>
<path fill-rule="evenodd" clip-rule="evenodd" d="M121.463 280.112L136.375 280.112H136.929L151.842 280.112C176.605 280.112 195.419 257.84 191.279 233.425L184.742 194.875C183.915 189.997 182.19 185.315 179.655 181.067L170.966 166.505C163.802 154.498 150.895 147.11 136.929 147.001V147H136.688C136.676 147 136.664 147 136.652 147C136.64 147 136.628 147 136.616 147H136.375V147.001C122.409 147.11 109.502 154.498 102.338 166.505L93.6492 181.067C91.1143 185.315 89.3896 189.997 88.5625 194.875L82.0256 233.425C77.8856 257.84 96.6993 280.112 121.463 280.112Z" fill="#66341C"/>
<ellipse cx="66.5764" cy="67.3612" rx="38.8125" ry="33.0788" transform="rotate(30.3368 66.5764 67.3612)" fill="#794023"/>
<ellipse cx="66.5764" cy="67.3613" rx="30.0465" ry="25.6078" transform="rotate(30.3368 66.5764 67.3613)" fill="#180500"/>
<ellipse rx="38.8125" ry="33.0788" transform="matrix(-0.863072 0.505082 0.505082 0.863072 202.139 67.3612)" fill="#794023"/>
<ellipse rx="30.0465" ry="25.6078" transform="matrix(-0.863072 0.505082 0.505082 0.863072 202.139 67.3613)" fill="#180500"/>
<ellipse cx="135.042" cy="113.5" rx="78.5" ry="81" transform="rotate(90 135.042 113.5)" fill="#794023"/>
<ellipse opacity="0.8" cx="135.042" cy="155.5" rx="28.5" ry="25" transform="rotate(90 135.042 155.5)" fill="#F7B380"/>
<ellipse cx="108.042" cy="116" rx="8" ry="11" fill="#180500"/>
<ellipse cx="162.042" cy="116" rx="8" ry="11" fill="#180500"/>
<g filter="url(#filter0_d_3_69)">
<ellipse cx="135.542" cy="147.5" rx="5.5" ry="9.5" transform="rotate(90 135.542 147.5)" fill="#180500"/>
</g>
<line x1="135.876" y1="153" x2="135.876" y2="166.333" stroke="black"/>
<path d="M142.042 169C137.37 165.421 134.721 165.468 130.042 169" stroke="black"/>
<defs>
<filter id="filter0_d_3_69" x="122.042" y="142" width="27" height="19" filterUnits="userSpaceOnUse" color-interpolation-filters="sRGB">
<feFlood flood-opacity="0" result="BackgroundImageFix"/>
<feColorMatrix in="SourceAlpha" type="matrix" values="0 0 0 0 0 0 0 0 0 0 0 0 0 0 0 0 0 0 127 0" result="hardAlpha"/>
<feOffset dy="4"/>
<feGaussianBlur stdDeviation="2"/>
<feComposite in2="hardAlpha" operator="out"/>
<feColorMatrix type="matrix" values="0 0 0 0 0 0 0 0 0 0 0 0 0 0 0 0 0 0 0.25 0"/>
<feBlend mode="normal" in2="BackgroundImageFix" result="effect1_dropShadow_3_69"/>
<feBlend mode="normal" in="SourceGraphic" in2="effect1_dropShadow_3_69" result="shape"/>
</filter>
</defs>
</svg>
