<svg width="375" height="812" viewBox="0 0 375 812" fill="none" xmlns="http://www.w3.org/2000/svg">
<g clip-path="url(#clip0_6_152)">
<rect width="375" height="812" fill="#FFFBD6"/>
<path opacity="0.1" d="M148 288H164V506H148V397V288Z" fill="#C5C271"/>
<path opacity="0.05" d="M192 323H207V541H192V432V323Z" fill="#C5C271"/>
<ellipse cx="165" cy="382" rx="72" ry="64" fill="#F5F9D3"/>
<ellipse opacity="0.5" cx="202" cy="395" rx="72" ry="64" fill="#F5F9D3"/>
<path opacity="0.5" d="M237 323H260L256 432L260 541H237V432V323Z" fill="#C5C271"/>
<path opacity="0.2" d="M291 288H307V506H291V397V288Z" fill="#D2D296"/>
<path opacity="0.1" d="M48 314H58V532H48V423V314Z" fill="#C5C271"/>
<path d="M386 517.216C386 544.977 293.923 592 164.8 592C35.6756 592 -69 569.496 -69 541.736C-69 513.975 -12.3959 456.525 146.342 496.982C272.265 529.075 386 450.606 386 517.216Z" fill="#AFC057"/>
<path d="M73 300H101V409L99 463.5L101 518H73V300Z" fill="#BFBB69"/>
<path d="M-48 570.254C-48 612.087 56.4883 646 185.381 646C314.274 646 418.762 612.087 418.762 570.254C418.762 529.163 466.562 507.822 297.523 548.546C291.528 549.99 285 549.558 279.228 547.387C81.5693 473.052 -48 529.038 -48 570.254Z" fill="#9FAF45"/>
<path d="M326 388.477H357L353.737 446.256L357 497.477V606.477H326L331.303 566.729V514.688L326 388.477Z" fill="#755A23"/>
<path d="M6.70691 382.5H37.7069L33.7069 498.5L35.7069 549.5L37.7069 600.5H6.70691L8.70691 546L6.70691 491.5L10.7069 437L6.70691 382.5Z" fill="#755A23"/>
<path d="M419.505 694.151C428.714 912.408 311.89 944.111 178.772 944.577C45.6543 945.043 -62.064 955.243 -62.5573 695.838C-62.7677 635.737 28.744 532.469 171.814 582.318C175.96 583.763 180.308 585.042 184.626 585.838C341.99 614.829 434.386 557.08 419.505 694.151Z" fill="#7B822D"/>
<ellipse cx="228.5" cy="213" rx="72.5" ry="67" fill="#E1E6AE"/>
<ellipse cx="222" cy="264.5" rx="72" ry="66.5" fill="#E1E6AE"/>
<ellipse cx="222" cy="341" rx="72" ry="67" fill="#E1E6AE"/>
<ellipse rx="74.0365" ry="65.1243" transform="matrix(0.625848 -0.779945 0.752273 0.658852 292.976 280.177)" fill="#E1E6AE"/>
<ellipse cx="270.546" cy="357.931" rx="52.0447" ry="47.5368" transform="rotate(90.855 270.546 357.931)" fill="#E1E6AE"/>
<ellipse rx="73.589" ry="63.2225" transform="matrix(-0.940684 0.339283 -0.435052 -0.900405 367.242 322.217)" fill="#A3B44C"/>
<ellipse rx="60.5068" ry="75.2685" transform="matrix(-0.932939 -0.360035 0.173146 -0.984896 384.482 219.916)" fill="#A3B44C"/>
<ellipse rx="59.5587" ry="65.9328" transform="matrix(-0.94779 -0.318895 0.197663 -0.98027 13.8745 316.239)" fill="#A3B44C"/>
<ellipse rx="61.147" ry="64.2517" transform="matrix(-0.0600938 -0.998193 0.989627 0.143664 309.26 199.267)" fill="#A3B44C"/>
<ellipse opacity="0.12" cx="247" cy="331.5" rx="72" ry="66.5" fill="#E0E5AD"/>
<ellipse rx="59.3044" ry="63.2225" transform="matrix(-0.951854 -0.30655 0.206137 -0.978523 337.373 401.044)" fill="#A3B44C"/>
<ellipse rx="59.3044" ry="63.2225" transform="matrix(-0.951854 -0.30655 0.206137 -0.978523 313.482 368.044)" fill="#A3B44C"/>
<ellipse rx="64.5534" ry="62.1298" transform="matrix(-0.736331 0.676622 -0.482391 -0.875956 301.38 279.483)" fill="#A3B44C"/>
<ellipse cx="115" cy="300" rx="72" ry="67" fill="#D6DD9A"/>
<ellipse cx="125.5" cy="250" rx="72.5" ry="67" fill="#D6DD9A"/>
<ellipse cx="120" cy="345" rx="72" ry="67" fill="#D6DD9A"/>
<ellipse cx="138" cy="199" rx="72" ry="67" fill="#D6DD9A"/>
<ellipse cx="73" cy="392" rx="57" ry="48" fill="#D6DD9A"/>
<ellipse rx="59.3044" ry="63.2225" transform="matrix(-0.951854 -0.30655 0.206137 -0.978523 28.6273 371.294)" fill="#A3B44C"/>
<ellipse rx="59.5587" ry="65.9328" transform="matrix(-0.94779 -0.318895 0.197663 -0.98027 57.3133 331.651)" fill="#A3B44C"/>
<ellipse rx="59.5587" ry="77.8473" transform="matrix(-0.94779 -0.318895 0.197663 -0.98027 -17.9862 300.518)" fill="#A3B44C"/>
<ellipse rx="59.5587" ry="65.9328" transform="matrix(-0.94779 -0.318895 0.197663 -0.98027 -7.43515 271.713)" fill="#A3B44C"/>
<ellipse rx="59.5587" ry="65.9328" transform="matrix(-0.94779 -0.318895 0.197663 -0.98027 -7.43515 249.45)" fill="#A3B44C"/>
<ellipse rx="59.5587" ry="65.9328" transform="matrix(-0.94779 -0.318895 0.197663 -0.98027 49.9369 285.413)" fill="#A3B44C"/>
<ellipse rx="71.3061" ry="79.5202" transform="matrix(-0.94779 -0.318895 0.197663 -0.98027 42.3014 202.69)" fill="#A3B44C"/>
</g>
<defs>
<clipPath id="clip0_6_152">
<rect width="375" height="812" fill="white"/>
</clipPath>
</defs>
</svg>
