<svg width="375" height="1144" viewBox="0 0 375 1144" fill="none" xmlns="http://www.w3.org/2000/svg">
<mask id="mask0_35_2652" style="mask-type:alpha" maskUnits="userSpaceOnUse" x="0" y="0" width="375" height="1144">
<rect width="375" height="1144" fill="#FFFBD6"/>
</mask>
<g mask="url(#mask0_35_2652)">
<path opacity="0.1" d="M147.823 167H163.823V385H147.823V276V167Z" fill="#C5C271"/>
<path opacity="0.05" d="M191.823 202H206.823V420H191.823V311V202Z" fill="#C5C271"/>
<ellipse cx="164.823" cy="261" rx="72" ry="64" fill="#F5F9D3"/>
<ellipse opacity="0.5" cx="201.823" cy="274" rx="72" ry="64" fill="#F5F9D3"/>
<path opacity="0.5" d="M236.823 202H259.823L255.823 311L259.823 420H236.823V311V202Z" fill="#C5C271"/>
<path opacity="0.2" d="M290.823 167H306.823V385H290.823V276V167Z" fill="#D2D296"/>
<path opacity="0.1" d="M47.8229 193H57.8229V411H47.8229V302V193Z" fill="#C5C271"/>
<path d="M385.823 396.216C385.823 423.977 293.746 471 164.622 471C35.4985 471 -69.1771 448.496 -69.1771 420.736C-69.1771 392.975 -12.573 335.525 146.165 375.982C272.088 408.075 385.823 329.606 385.823 396.216Z" fill="#AFC057"/>
<path d="M72.8229 179H100.823V288L98.8229 342.5L100.823 397H72.8229V179Z" fill="#BFBB69"/>
<path d="M-48.1772 449.254C-48.1772 491.087 56.3111 525 185.204 525C314.097 525 418.585 491.087 418.585 449.254C418.585 408.163 466.385 386.822 297.346 427.546C291.351 428.99 284.823 428.558 279.051 426.387C81.3921 352.052 -48.1773 408.038 -48.1772 449.254Z" fill="#9FAF45"/>
<path d="M325.823 267.477H356.823L353.56 325.256L356.823 376.477V485.477H325.823L331.125 445.729V393.688L325.823 267.477Z" fill="#755A23"/>
<path d="M6.52979 261.5H37.5298L33.5298 377.5L35.5298 428.5L37.5298 479.5H6.52979L8.52979 425L6.52979 370.5L10.5298 316L6.52979 261.5Z" fill="#755A23"/>
<path d="M419.328 573.151C428.537 791.408 311.713 823.111 178.595 823.577C45.4771 824.043 -62.2411 834.243 -62.7345 574.838C-62.9448 514.737 28.5669 411.469 171.637 461.318C175.783 462.763 180.131 464.042 184.449 464.838C341.813 493.829 434.209 436.08 419.328 573.151Z" fill="#7B822D"/>
<ellipse cx="228.323" cy="92" rx="72.5" ry="67" fill="#E1E6AE"/>
<ellipse cx="221.823" cy="143.5" rx="72" ry="66.5" fill="#E1E6AE"/>
<ellipse cx="221.823" cy="220" rx="72" ry="67" fill="#E1E6AE"/>
<ellipse rx="74.0365" ry="65.1243" transform="matrix(0.625848 -0.779945 0.752273 0.658852 292.799 159.177)" fill="#E1E6AE"/>
<ellipse cx="270.369" cy="236.931" rx="52.0447" ry="47.5368" transform="rotate(90.855 270.369 236.931)" fill="#E1E6AE"/>
<ellipse rx="73.589" ry="63.2225" transform="matrix(-0.940684 0.339283 -0.435052 -0.900405 367.065 201.217)" fill="#A3B44C"/>
<ellipse rx="60.5068" ry="75.2685" transform="matrix(-0.932939 -0.360035 0.173146 -0.984896 384.305 98.9162)" fill="#A3B44C"/>
<ellipse rx="59.5587" ry="65.9328" transform="matrix(-0.94779 -0.318895 0.197663 -0.98027 13.6974 195.239)" fill="#A3B44C"/>
<ellipse rx="61.147" ry="64.2517" transform="matrix(-0.0600938 -0.998193 0.989627 0.143664 309.082 78.2672)" fill="#A3B44C"/>
<ellipse opacity="0.12" cx="246.823" cy="210.5" rx="72" ry="66.5" fill="#E0E5AD"/>
<ellipse rx="59.3044" ry="63.2225" transform="matrix(-0.951854 -0.30655 0.206137 -0.978523 337.196 280.044)" fill="#A3B44C"/>
<ellipse rx="59.3044" ry="63.2225" transform="matrix(-0.951854 -0.30655 0.206137 -0.978523 313.305 247.044)" fill="#A3B44C"/>
<ellipse rx="64.5534" ry="62.1298" transform="matrix(-0.736331 0.676622 -0.482391 -0.875956 301.203 158.483)" fill="#A3B44C"/>
<ellipse cx="114.823" cy="179" rx="72" ry="67" fill="#D6DD9A"/>
<ellipse cx="125.323" cy="129" rx="72.5" ry="67" fill="#D6DD9A"/>
<ellipse cx="119.823" cy="224" rx="72" ry="67" fill="#D6DD9A"/>
<ellipse cx="137.823" cy="78" rx="72" ry="67" fill="#D6DD9A"/>
<ellipse cx="72.8229" cy="271" rx="57" ry="48" fill="#D6DD9A"/>
<ellipse rx="59.3044" ry="63.2225" transform="matrix(-0.951854 -0.30655 0.206137 -0.978523 28.4502 250.294)" fill="#A3B44C"/>
<ellipse rx="59.5587" ry="65.9328" transform="matrix(-0.94779 -0.318895 0.197663 -0.98027 57.1362 210.651)" fill="#A3B44C"/>
<ellipse rx="59.5587" ry="77.8473" transform="matrix(-0.94779 -0.318895 0.197663 -0.98027 -18.1634 179.518)" fill="#A3B44C"/>
<ellipse rx="59.5587" ry="65.9328" transform="matrix(-0.94779 -0.318895 0.197663 -0.98027 -7.61222 150.713)" fill="#A3B44C"/>
<ellipse rx="59.5587" ry="65.9328" transform="matrix(-0.94779 -0.318895 0.197663 -0.98027 -7.61222 128.45)" fill="#A3B44C"/>
<ellipse rx="59.5587" ry="65.9328" transform="matrix(-0.94779 -0.318895 0.197663 -0.98027 49.7597 164.413)" fill="#A3B44C"/>
<ellipse rx="71.3061" ry="79.5202" transform="matrix(-0.94779 -0.318895 0.197663 -0.98027 42.1243 81.6905)" fill="#A3B44C"/>
<path d="M419.505 573.151C428.714 791.408 311.89 823.111 178.772 823.577C45.6543 824.043 -62.064 834.243 -62.5573 574.838C-62.7677 514.737 28.744 411.469 171.814 461.318C175.96 462.763 180.308 464.042 184.626 464.838C341.99 493.829 434.386 436.08 419.505 573.151Z" fill="#7B822D"/>
<rect y="686" width="375" height="458" fill="#7B822D"/>
</g>
</svg>
