<svg width="223" height="333" viewBox="0 0 223 333" fill="none" xmlns="http://www.w3.org/2000/svg">
<ellipse opacity="0.1" cx="113" cy="318.5" rx="75" ry="14.5" fill="#0D0D0D"/>
<path d="M52.3608 273.709C52.3608 259.961 63.506 248.816 77.2544 248.816C94.0606 248.816 106.038 265.126 101.006 281.162L93.8351 304.017C92.0769 309.621 88.0756 314.245 82.783 316.791C68.6926 323.567 52.3608 313.299 52.3608 297.664V273.709Z" fill="#66341C"/>
<path d="M175.733 274.046C175.733 260.112 164.437 248.816 150.503 248.816C133.42 248.816 121.275 265.436 126.465 281.712L133.525 303.849C135.346 309.559 139.456 314.256 144.873 316.82C159.213 323.605 175.733 313.145 175.733 297.281V274.046Z" fill="#66341C"/>
<path d="M77.3785 182.182C86.313 190.173 82.2336 205.517 70.7299 207.19L65.4407 207.959C59.6061 208.807 54.4847 203.678 54.9436 197.446C55.2173 193.73 53.4655 190.152 50.4321 188.232L17.0395 167.097C9.48711 162.317 7.71427 151.533 13.3177 144.458C18.3291 138.13 27.269 137.362 33.2856 142.744L77.3785 182.182Z" fill="#66341C"/>
<path d="M143.858 200.279C134.15 207.311 136.632 222.993 147.903 225.838L153.085 227.146C158.802 228.589 164.423 224.013 164.607 217.767C164.716 214.042 166.826 210.664 170.04 209.065L205.427 191.471C213.43 187.492 216.301 176.947 211.454 169.334C207.119 162.524 198.305 160.843 191.768 165.578L143.858 200.279Z" fill="#66341C"/>
<path fill-rule="evenodd" clip-rule="evenodd" d="M113.378 281.495H86.3306C61.4272 281.464 42.5995 258.924 47.0138 234.407L56.0256 184.355C56.9418 179.266 58.8358 174.404 61.6028 170.036L74.6754 149.401C82.0097 137.824 94.7604 130.808 108.465 130.808H113.378H114.044H118.958C132.662 130.808 145.413 137.824 152.748 149.401L165.82 170.036C168.587 174.404 170.481 179.266 171.397 184.355L180.409 234.407C184.823 258.924 165.996 281.464 141.092 281.495H114.044H113.378Z" fill="#794023"/>
<path fill-rule="evenodd" clip-rule="evenodd" d="M113.978 255.272H113.444L101.274 255.272C76.3461 255.272 57.4902 232.718 61.9075 208.184L67.1793 178.904C68.0955 173.815 69.9895 168.953 72.7565 164.585L80.0753 153.032C87.3346 141.574 99.8998 134.583 113.444 134.441V134.439H113.558C113.609 134.439 113.66 134.439 113.711 134.44C113.763 134.439 113.814 134.439 113.865 134.439H113.978V134.441C127.523 134.583 140.088 141.574 147.347 153.032L154.666 164.585C157.433 168.953 159.327 173.815 160.244 178.904L165.515 208.184C169.933 232.718 151.077 255.272 126.148 255.272L113.978 255.272Z" fill="#66341C"/>
<ellipse rx="36.0583" ry="31.2046" transform="matrix(0.555 0.858649 -0.847784 0.48716 64.1779 46.3375)" fill="#794023"/>
<ellipse rx="27.9144" ry="24.1569" transform="matrix(0.555 0.858649 -0.847784 0.48716 64.1779 46.3376)" fill="#180500"/>
<ellipse rx="36.0583" ry="31.2046" transform="matrix(-0.640589 0.796836 0.793026 0.57199 169.654 53.519)" fill="#794023"/>
<ellipse rx="27.9144" ry="24.1569" transform="matrix(-0.640589 0.796836 0.793026 0.57199 169.654 53.519)" fill="#180500"/>
<ellipse cx="112.16" cy="104.03" rx="71.2584" ry="78.0715" transform="rotate(90 112.16 104.03)" fill="#794023"/>
<ellipse opacity="0.8" cx="112.16" cy="142.155" rx="25.8709" ry="24.0961" transform="rotate(90 112.16 142.155)" fill="#F7B380"/>
<ellipse cx="86.1363" cy="100.299" rx="7.71076" ry="9.98525" fill="#180500"/>
<ellipse cx="138.184" cy="100.299" rx="7.71076" ry="9.98525" fill="#180500"/>
<g filter="url(#filter0_d_21_1879)">
<ellipse cx="112.642" cy="134.893" rx="4.99263" ry="9.15653" transform="rotate(90 112.642 134.893)" fill="#180500"/>
</g>
<path d="M105.5 151.5L113.118 154.429L121 151.5L116.176 158L112.5 159L109.5 157.5L105.5 151.5Z" fill="#FFFBD6"/>
<line x1="112.981" y1="139.886" x2="112.981" y2="151.989" stroke="black"/>
<path d="M104 150C111.009 155.368 114.982 155.298 122 150" stroke="black"/>
<path d="M105 151C109.747 161.736 116.247 161.597 121 151" stroke="black"/>
<defs>
<filter id="filter0_d_21_1879" x="99.4855" y="129.9" width="26.313" height="17.9852" filterUnits="userSpaceOnUse" color-interpolation-filters="sRGB">
<feFlood flood-opacity="0" result="BackgroundImageFix"/>
<feColorMatrix in="SourceAlpha" type="matrix" values="0 0 0 0 0 0 0 0 0 0 0 0 0 0 0 0 0 0 127 0" result="hardAlpha"/>
<feOffset dy="4"/>
<feGaussianBlur stdDeviation="2"/>
<feComposite in2="hardAlpha" operator="out"/>
<feColorMatrix type="matrix" values="0 0 0 0 0 0 0 0 0 0 0 0 0 0 0 0 0 0 0.25 0"/>
<feBlend mode="normal" in2="BackgroundImageFix" result="effect1_dropShadow_21_1879"/>
<feBlend mode="normal" in="SourceGraphic" in2="effect1_dropShadow_21_1879" result="shape"/>
</filter>
</defs>
</svg>
