<svg width="168" height="24" viewBox="0 0 168 24" fill="none" xmlns="http://www.w3.org/2000/svg">
<g opacity="0.3">
<rect x="16" y="7" width="140" height="10" rx="5" fill="white"/>
<rect x="14.5" y="5.5" width="143" height="13" rx="6.5" stroke="#FF7900" stroke-opacity="0.3" stroke-width="3"/>
</g>
<rect x="16" y="7" width="49" height="10" rx="5" fill="#FF7900"/>
<circle cx="12" cy="12" r="12" fill="#FF7900"/>
<path d="M13.568 18C13.312 18 13.072 17.9467 12.848 17.84C12.6347 17.7227 12.528 17.552 12.528 17.328V15.456H8.688C8.48533 15.456 8.31467 15.392 8.176 15.264C8.03733 15.1253 7.968 14.944 7.968 14.72C7.968 14.656 7.97867 14.5867 8 14.512C8.02133 14.4373 8.048 14.3627 8.08 14.288L11.872 6.848C11.968 6.64533 12.096 6.50667 12.256 6.432C12.416 6.34667 12.5813 6.304 12.752 6.304C12.88 6.304 13.024 6.336 13.184 6.4C13.344 6.464 13.4827 6.56 13.6 6.688C13.728 6.80533 13.792 6.944 13.792 7.104C13.792 7.168 13.7653 7.25867 13.712 7.376L10.64 13.52H12.528V11.84C12.528 11.6053 12.6347 11.44 12.848 11.344C13.072 11.2373 13.312 11.184 13.568 11.184C13.824 11.184 14.0587 11.2373 14.272 11.344C14.496 11.44 14.608 11.6053 14.608 11.84V13.52H15.344C15.568 13.52 15.7333 13.6213 15.84 13.824C15.9573 14.0267 16.016 14.2453 16.016 14.48C16.016 14.7253 15.9467 14.9493 15.808 15.152C15.6693 15.3547 15.5147 15.456 15.344 15.456H14.608V17.328C14.608 17.552 14.496 17.7227 14.272 17.84C14.0587 17.9467 13.824 18 13.568 18Z" fill="white"/>
<circle cx="156" cy="12" r="11" fill="white" stroke="#FF7900" stroke-width="2"/>
<path d="M156.048 18.096C155.237 18.096 154.549 17.9573 153.984 17.68C153.419 17.4027 152.992 17.0453 152.704 16.608C152.416 16.16 152.272 15.6907 152.272 15.2C152.272 14.8267 152.363 14.576 152.544 14.448C152.725 14.32 152.981 14.256 153.312 14.256C153.749 14.256 154.032 14.336 154.16 14.496C154.288 14.6453 154.352 14.8267 154.352 15.04C154.352 15.3067 154.421 15.5307 154.56 15.712C154.709 15.8933 154.907 16.032 155.152 16.128C155.408 16.224 155.691 16.272 156 16.272C156.533 16.272 156.949 16.128 157.248 15.84C157.547 15.552 157.696 15.104 157.696 14.496V14.192C157.696 13.584 157.547 13.136 157.248 12.848C156.949 12.5493 156.544 12.4 156.032 12.4H153.648C153.328 12.4 153.109 12.3253 152.992 12.176C152.875 12.0267 152.816 11.8293 152.816 11.584C152.816 11.5093 152.816 11.44 152.816 11.376C152.827 11.312 152.837 11.2427 152.848 11.168L153.248 6.976C153.259 6.76267 153.296 6.59733 153.36 6.48C153.435 6.36267 153.531 6.304 153.648 6.304H158.576C158.789 6.304 158.944 6.4 159.04 6.592C159.147 6.77333 159.2 6.98133 159.2 7.216C159.2 7.44 159.147 7.648 159.04 7.84C158.944 8.032 158.789 8.128 158.576 8.128H154.976L154.784 10.768H156.032C156.725 10.768 157.355 10.88 157.92 11.104C158.485 11.3173 158.933 11.68 159.264 12.192C159.605 12.6933 159.776 13.36 159.776 14.192V14.496C159.776 15.36 159.605 16.0587 159.264 16.592C158.933 17.1253 158.485 17.5093 157.92 17.744C157.355 17.9787 156.731 18.096 156.048 18.096Z" fill="#794023"/>
</svg>
