<svg width="375" height="812" viewBox="0 0 375 812" fill="none" xmlns="http://www.w3.org/2000/svg">
<g clip-path="url(#clip0_10_1509)">
<rect width="375" height="812" fill="#FFFBD6"/>
<path opacity="0.1" d="M148 288H164V506H148V397V288Z" fill="#C5C271"/>
<path opacity="0.05" d="M192 323H207V541H192V432V323Z" fill="#C5C271"/>
<ellipse cx="165" cy="382" rx="72" ry="64" fill="#F5F9D3"/>
<ellipse opacity="0.5" cx="202" cy="395" rx="72" ry="64" fill="#F5F9D3"/>
<path opacity="0.5" d="M237 323H260L256 432L260 541H237V432V323Z" fill="#C5C271"/>
<path opacity="0.2" d="M291 288H307V506H291V397V288Z" fill="#D2D296"/>
<path opacity="0.1" d="M48 314H58V532H48V423V314Z" fill="#C5C271"/>
<path d="M386 517.216C386 544.977 293.923 592 164.8 592C35.6756 592 -69 569.496 -69 541.736C-69 513.975 -12.3959 456.525 146.342 496.982C272.265 529.075 386 450.606 386 517.216Z" fill="#AFC057"/>
<path d="M73 300H101V409L99 463.5L101 518H73V300Z" fill="#BFBB69"/>
<path d="M-48 570.254C-48 612.087 56.4883 646 185.381 646C314.274 646 418.762 612.087 418.762 570.254C418.762 529.163 466.562 507.822 297.523 548.546C291.528 549.99 285 549.558 279.228 547.387C81.5693 473.052 -48 529.038 -48 570.254Z" fill="#9FAF45"/>
<path d="M326 388.477H357L353.737 446.256L357 497.477V606.477H326L331.303 566.729V514.688L326 388.477Z" fill="#755A23"/>
<path d="M6.7069 382.5H37.7069L33.7069 498.5L35.7069 549.5L37.7069 600.5H6.7069L8.7069 546L6.7069 491.5L10.7069 437L6.7069 382.5Z" fill="#755A23"/>
<path d="M311.967 607.033L291.342 593.513C290.993 593.283 290.895 592.812 291.124 592.462C291.354 592.112 291.824 592.014 292.175 592.244L312.798 605.763C313.149 605.994 313.247 606.464 313.018 606.814C312.788 607.165 312.318 607.263 311.967 607.033Z" fill="#B8C2C4"/>
<path d="M311.962 606.517L291.818 593.311L309.157 566.861L329.301 580.067L311.962 606.517Z" fill="#B8C2C4"/>
<path d="M337.525 576.555C331.955 579.828 325.993 580.015 324.207 576.973C322.42 573.934 325.488 568.817 331.057 565.545C336.625 562.274 342.587 562.087 344.375 565.126C346.16 568.168 343.092 573.285 337.525 576.555Z" fill="#B8C2C4"/>
<path d="M324.845 573.549C324.527 572.611 324.229 571.665 323.951 570.714C324.235 570.347 324.786 571.348 325.143 571.052C325.207 571.001 325.237 570.919 325.265 570.842C325.558 570.007 325.853 569.173 326.148 568.338C326.53 568.655 327.001 568.865 327.491 568.937C327.806 567.928 328.19 566.94 328.637 565.984C329.111 566.171 329.586 566.359 330.06 566.548C330.739 565.709 331.29 564.764 331.687 563.761C332.233 564.221 332.78 564.682 333.326 565.143C334.103 564.236 334.882 563.33 335.661 562.423C335.603 562.869 335.687 563.333 335.897 563.731C336.926 563.154 337.954 562.577 338.984 562C339.051 562.461 339.118 562.921 339.186 563.382C340.079 563.005 341.007 562.708 341.953 562.497C341.732 562.957 341.51 563.417 341.289 563.877C342.322 563.712 343.365 563.603 344.411 563.551C344.027 563.912 343.643 564.274 343.26 564.636C344.332 564.908 345.348 565.392 346.235 566.051C345.517 566.228 344.825 566.509 344.184 566.879C344.802 567.537 345.298 568.307 345.639 569.142C345.294 569.125 344.95 569.109 344.607 569.092C344.516 569.087 344.416 569.086 344.348 569.148C344.283 569.206 344.271 569.301 344.265 569.388C344.178 570.384 344.091 571.381 344.004 572.378C343.581 571.932 343.071 571.57 342.51 571.317C342.665 572.437 342.271 573.621 341.478 574.424C341.117 574.199 340.828 573.858 340.663 573.467C340.717 574.535 340.34 575.619 339.636 576.426C339.172 575.998 338.671 575.611 338.14 575.272C338.097 576.267 337.751 577.247 337.159 578.047C336.684 577.259 335.926 576.646 335.057 576.344C335.066 577.188 334.961 578.034 334.744 578.851C334.082 578.401 333.377 578.016 332.642 577.701C332.675 578.362 332.634 579.026 332.519 579.677C331.821 579.293 331.123 578.911 330.424 578.529C330.429 579.034 330.432 579.541 330.437 580.046C329.832 579.203 328.614 579.213 327.601 578.99C325.437 578.515 324.835 576.832 323.428 575.439C323.215 575.229 322.264 574.622 322.351 574.252C322.471 573.737 324.409 573.639 324.845 573.549" fill="#B8C2C4"/>
<path d="M338.825 565.515C337.008 565.515 334.626 566.23 332.292 567.6C330.3 568.771 328.649 570.24 327.642 571.739C326.67 573.186 326.422 574.475 326.945 575.365C328.06 577.26 332.269 576.862 336.33 574.476C338.322 573.306 339.972 571.837 340.979 570.338C341.951 568.891 342.199 567.602 341.676 566.712C341.202 565.907 340.168 565.515 338.825 565.515V565.515ZM329.816 577.029C328.29 577.029 327.106 576.56 326.542 575.603C325.922 574.549 326.176 573.083 327.253 571.478C328.298 569.922 330.003 568.402 332.054 567.197C336.41 564.638 340.814 564.322 342.079 566.474C342.699 567.528 342.446 568.994 341.368 570.599C340.323 572.155 338.618 573.675 336.567 574.88C334.149 576.3 331.718 577.029 329.816 577.029" fill="#9DA2A3"/>
<path d="M338.041 566.4C337.866 566.4 337.682 566.409 337.492 566.425C335.989 566.55 334.243 567.156 332.578 568.135C329.183 570.13 327.178 573.042 328.109 574.627C328.545 575.372 329.586 575.714 331.041 575.595C332.544 575.468 334.29 574.862 335.954 573.883C339.349 571.889 341.355 568.978 340.423 567.392C340.045 566.745 339.209 566.4 338.041 566.4V566.4ZM330.495 576.009C329.181 576.009 328.224 575.598 327.771 574.826C326.712 573.024 328.737 569.937 332.38 567.797C334.093 566.791 335.898 566.164 337.459 566.035C339.071 565.9 340.245 566.312 340.761 567.194C341.82 568.996 339.795 572.081 336.153 574.221C334.438 575.229 332.634 575.855 331.073 575.985C330.873 576.001 330.682 576.009 330.495 576.009" fill="#9DA2A3"/>
<path d="M297.841 597.285L311.95 606.533L329.121 580.343C323.93 576.973 318.741 573.604 313.551 570.235C312.355 569.458 311.155 568.679 309.89 568.02C309.694 567.919 309.085 567.5 308.748 567.486L308.544 567.799C308.624 568.084 308.949 568.455 309.063 568.578C309.998 569.574 311.319 570.33 312.339 571.265C313.428 572.262 314.457 573.326 315.418 574.447C316.397 575.586 317.318 576.808 317.862 578.208C318.756 580.505 318.553 583.141 317.616 585.422C316.679 587.702 315.057 589.652 313.196 591.268C308.965 594.945 303.458 596.942 297.841 597.285" fill="#9DA2A3"/>
<path d="M328.944 581.134L308.321 567.615C307.97 567.386 307.871 566.915 308.103 566.564C308.332 566.213 308.803 566.115 309.153 566.345L329.777 579.865C330.127 580.095 330.226 580.566 329.995 580.916C329.765 581.267 329.295 581.366 328.944 581.134Z" fill="#B8C2C4"/>
<path d="M313.962 603.466L293.818 590.26L307.157 569.914L327.301 583.118L313.962 603.466Z" fill="#F98715"/>
<path d="M317.744 578.129C318.638 580.428 318.435 583.064 317.497 585.343C316.561 587.624 314.939 589.573 313.078 591.189C310.217 593.677 306.775 595.393 303.109 596.35L313.844 603.387L327.183 583.041L316.692 576.164C317.11 576.783 317.472 577.434 317.744 578.129Z" fill="#D66E18"/>
<path d="M419.505 694.151C428.714 912.408 311.89 944.111 178.772 944.577C45.6543 945.043 -62.064 955.243 -62.5573 695.838C-62.7677 635.737 28.744 532.469 171.814 582.318C175.96 583.763 180.308 585.042 184.626 585.838C341.99 614.829 434.386 557.08 419.505 694.151Z" fill="#7B822D"/>
<ellipse cx="228.5" cy="213" rx="72.5" ry="67" fill="#E1E6AE"/>
<ellipse cx="222" cy="264.5" rx="72" ry="66.5" fill="#E1E6AE"/>
<ellipse cx="222" cy="341" rx="72" ry="67" fill="#E1E6AE"/>
<ellipse rx="74.0365" ry="65.1243" transform="matrix(0.625848 -0.779945 0.752273 0.658852 292.976 280.177)" fill="#E1E6AE"/>
<ellipse cx="270.546" cy="357.931" rx="52.0447" ry="47.5368" transform="rotate(90.855 270.546 357.931)" fill="#E1E6AE"/>
<ellipse rx="73.589" ry="63.2225" transform="matrix(-0.940684 0.339283 -0.435052 -0.900405 367.242 322.217)" fill="#A3B44C"/>
<ellipse rx="60.5068" ry="75.2685" transform="matrix(-0.932939 -0.360035 0.173146 -0.984896 384.482 219.916)" fill="#A3B44C"/>
<ellipse rx="59.5587" ry="65.9328" transform="matrix(-0.94779 -0.318895 0.197663 -0.98027 13.8745 316.239)" fill="#A3B44C"/>
<ellipse rx="61.147" ry="64.2517" transform="matrix(-0.0600938 -0.998193 0.989627 0.143664 309.26 199.267)" fill="#A3B44C"/>
<ellipse opacity="0.12" cx="247" cy="331.5" rx="72" ry="66.5" fill="#E0E5AD"/>
<ellipse rx="59.3044" ry="63.2225" transform="matrix(-0.951854 -0.30655 0.206137 -0.978523 337.373 401.044)" fill="#A3B44C"/>
<ellipse rx="59.3044" ry="63.2225" transform="matrix(-0.951854 -0.30655 0.206137 -0.978523 313.482 368.044)" fill="#A3B44C"/>
<ellipse rx="64.5534" ry="62.1298" transform="matrix(-0.736331 0.676622 -0.482391 -0.875956 301.38 279.483)" fill="#A3B44C"/>
<ellipse cx="115" cy="300" rx="72" ry="67" fill="#D6DD9A"/>
<ellipse cx="125.5" cy="250" rx="72.5" ry="67" fill="#D6DD9A"/>
<ellipse cx="120" cy="345" rx="72" ry="67" fill="#D6DD9A"/>
<ellipse cx="138" cy="199" rx="72" ry="67" fill="#D6DD9A"/>
<ellipse cx="73" cy="392" rx="57" ry="48" fill="#D6DD9A"/>
<ellipse rx="59.3044" ry="63.2225" transform="matrix(-0.951854 -0.30655 0.206137 -0.978523 28.6273 371.294)" fill="#A3B44C"/>
<ellipse rx="59.5587" ry="65.9328" transform="matrix(-0.94779 -0.318895 0.197663 -0.98027 57.3133 331.651)" fill="#A3B44C"/>
<ellipse rx="59.5587" ry="77.8473" transform="matrix(-0.94779 -0.318895 0.197663 -0.98027 -17.9862 300.518)" fill="#A3B44C"/>
<ellipse rx="59.5587" ry="65.9328" transform="matrix(-0.94779 -0.318895 0.197663 -0.98027 -7.43515 271.713)" fill="#A3B44C"/>
<ellipse rx="59.5587" ry="65.9328" transform="matrix(-0.94779 -0.318895 0.197663 -0.98027 -7.43515 249.45)" fill="#A3B44C"/>
<ellipse rx="59.5587" ry="65.9328" transform="matrix(-0.94779 -0.318895 0.197663 -0.98027 49.9369 285.413)" fill="#A3B44C"/>
<ellipse rx="71.3061" ry="79.5202" transform="matrix(-0.94779 -0.318895 0.197663 -0.98027 42.3014 202.69)" fill="#A3B44C"/>
<ellipse opacity="0.1" cx="52.5" cy="518.5" rx="6.5" ry="2.5" fill="#0D0D0D"/>
<path d="M51.5591 508.477C52.1448 507.654 53.1558 507.152 54.1664 507.184C54.0545 507.384 53.9425 507.584 53.8302 507.783C54.7124 507.801 55.5371 508.489 55.7098 509.355C56.1454 508.685 56.7362 508.135 57.3207 507.591C57.9272 508.091 58.4736 508.663 58.9455 509.292C59.028 509.402 59.1115 509.522 59.1185 509.66C59.1253 509.79 59.0626 509.912 59.002 510.026C58.7178 510.561 58.4339 511.095 58.1505 511.63C58.1143 511.698 58.0769 511.777 58.1067 511.848C58.1331 511.912 58.2047 511.944 58.2702 511.969C58.9283 512.228 59.5862 512.487 60.2443 512.745C60.3507 512.786 60.4604 512.831 60.538 512.915C60.6158 513.001 60.65 513.117 60.6752 513.23C60.8231 513.885 60.7636 514.585 60.5063 515.206C60.2446 515.837 59.7944 516.367 59.3521 516.887C58.7197 517.629 58.0869 518.371 57.4552 519.114C57.287 519.311 57.0875 519.524 56.8286 519.529C56.655 519.533 56.496 519.44 56.343 519.357C55.7781 519.05 55.1609 518.839 54.5254 518.738C54.4425 518.725 54.356 518.712 54.2856 518.666C54.1009 518.547 54.112 518.279 54.1437 518.061C54.2326 517.464 54.3217 516.867 54.4105 516.27C54.4261 516.165 54.4308 516.035 54.3418 515.979C54.2712 515.934 54.1791 515.96 54.1004 515.988C53.7269 516.12 53.3367 516.263 53.0733 516.558C52.9417 516.705 52.8493 516.883 52.7327 517.041C52.4533 517.42 52.0278 517.689 51.5648 517.777C50.4763 517.986 49.4599 517.235 48.6048 516.53C48.5056 516.447 48.3951 516.334 48.4295 516.21C48.4451 516.155 48.4854 516.113 48.5288 516.077C48.7775 515.871 49.1267 515.836 49.4064 515.675C49.6863 515.513 49.8686 515.077 49.6109 514.883C49.5249 514.817 49.4135 514.8 49.307 514.785C48.7471 514.704 48.187 514.625 47.6271 514.544C47.3867 514.509 47.1404 514.473 46.929 514.355C46.3041 514.007 46.2374 513.118 46.4468 512.434C46.5303 512.159 46.6361 511.831 46.4524 511.612C46.3836 511.529 46.2847 511.479 46.1889 511.431C45.7808 511.228 45.3718 511.023 44.964 510.819C45.2923 510.14 46.1596 509.896 46.9115 509.967C47.6627 510.038 48.3736 510.344 49.1214 510.45C49.1324 510.027 49.1411 509.593 49.004 509.192C48.8668 508.792 48.5496 508.424 48.1326 508.352C47.6863 508.274 47.2454 508.539 46.7938 508.521C46.9864 508.528 47.7231 507.727 47.9264 507.583C48.199 507.39 48.795 506.859 49.1514 506.908C49.4586 506.949 49.898 507.481 50.1473 507.655C50.5945 507.967 51.0672 508.242 51.5591 508.477" fill="#FFE9CC"/>
<path d="M46.4522 512.446C46.5362 512.172 46.642 511.845 46.4583 511.625C46.3902 511.542 46.2913 511.492 46.1955 511.444C45.787 511.24 45.3784 511.036 44.9699 510.832C45.2984 510.152 46.1657 509.908 46.9174 509.98C47.6693 510.051 48.3802 510.357 49.1273 510.463C49.1379 510.039 49.1476 509.605 49.0105 509.205C48.873 508.804 48.5555 508.438 48.1381 508.365C47.7943 508.305 47.4533 508.449 47.1081 508.509C47.6696 508.083 48.5699 507.62 49.1295 507.79C49.2835 507.837 49.3978 507.964 49.5028 508.085C50.1904 508.875 50.907 509.795 50.8185 510.838C51.5375 510.307 52.2554 509.776 52.9732 509.245C52.8709 509.778 52.7236 510.304 52.5327 510.812C52.4683 510.985 52.3935 511.163 52.2524 511.281C52.1147 511.396 51.9327 511.438 51.7585 511.476C51.1575 511.606 50.5521 511.717 49.9437 511.81C50.1501 512.394 50.8673 512.596 51.4847 512.654C51.7218 512.677 51.9666 512.689 52.1939 512.616C52.8305 512.41 53.0731 511.651 53.5419 511.173C53.7995 511.45 54.0578 511.727 54.3153 512.003C54.445 512.142 54.5793 512.291 54.6148 512.478C54.6613 512.728 54.5077 512.984 54.2972 513.127C54.0866 513.27 53.8283 513.323 53.5764 513.362C52.7825 513.486 51.9617 513.505 51.2099 513.789C51.1279 513.819 51.0346 513.871 51.0329 513.958C51.0329 514.029 51.0949 514.082 51.1526 514.123C51.9794 514.72 52.9363 515.134 53.9375 515.328C54.4136 515.421 54.9288 515.459 55.361 515.24C55.4812 515.179 55.596 515.095 55.6536 514.973C55.7059 514.863 55.7059 514.736 55.7037 514.614C55.6882 513.757 55.6419 512.891 55.8087 512.051C55.9759 511.21 56.3881 510.379 57.104 509.908C57.2016 509.843 57.352 509.795 57.4178 509.892C57.4606 509.955 57.4341 510.041 57.4065 510.111C57.1782 510.699 56.9601 511.336 57.1141 511.946C57.4261 511.514 57.7388 511.081 58.0508 510.649C58.2377 510.804 58.1297 511.104 58.0098 511.315C57.7051 511.846 57.4005 512.378 57.0963 512.91C58.3419 512.891 59.5909 513.241 60.6465 513.904C59.2746 514.016 57.949 514.624 56.9695 515.592C57.6813 515.829 58.4259 515.967 59.1757 516C58.9015 516.284 58.486 516.362 58.1157 516.497C57.3783 516.767 56.7475 517.315 56.3794 518.009C56.3378 518.089 56.2973 518.181 56.3239 518.267C56.3429 518.332 56.3957 518.38 56.45 518.42C56.6534 518.572 56.9026 518.65 57.1161 518.788C57.2526 518.877 57.3773 519.006 57.4387 519.152C57.2757 519.341 57.0826 519.537 56.8352 519.542C56.6611 519.545 56.5019 519.453 56.3495 519.37C55.7847 519.063 55.1668 518.852 54.532 518.75C54.4486 518.737 54.3622 518.724 54.2922 518.679C54.107 518.559 54.1182 518.291 54.1503 518.074C54.2387 517.477 54.3276 516.88 54.416 516.282C54.4316 516.178 54.4367 516.048 54.3473 515.991C54.2777 515.947 54.1856 515.973 54.1066 516.001C53.733 516.132 53.3433 516.276 53.0792 516.571C52.9483 516.718 52.8558 516.896 52.7392 517.054C52.4598 517.433 52.0337 517.702 51.5714 517.79C50.5917 517.977 49.6709 517.389 48.8734 516.755C49.0775 516.585 49.3611 516.56 49.6175 516.487C50.3669 516.275 50.9572 515.508 50.8508 514.737C50.7446 513.965 49.8458 513.372 49.1292 513.677C48.9005 513.774 48.7095 513.942 48.4891 514.058C48.1361 514.241 47.7282 514.279 47.332 514.313C47.1895 514.325 47.0469 514.337 46.9043 514.349C46.3083 513.989 46.2475 513.119 46.4522 512.446" fill="#EDD9C0"/>
<path d="M49.8866 511.247C49.2589 511.296 48.6359 511.401 48.0264 511.561C48.9924 512.263 49.9135 513.026 50.7838 513.843C49.9158 513.172 48.7615 512.974 47.8647 512.344C47.8028 512.301 47.7412 512.254 47.7035 512.188C47.6697 512.128 47.6588 512.058 47.6484 511.991C47.6043 511.689 47.559 511.387 47.5149 511.085C47.9182 511.137 48.3277 511.142 48.733 511.1C49.0055 511.072 49.301 511.008 49.4705 510.793C49.565 510.673 49.6074 510.521 49.642 510.372C49.7471 509.912 49.7976 509.439 49.7909 508.967C49.7948 509.348 49.9607 509.723 49.9657 510.11C49.9699 510.481 49.9376 510.879 49.8866 511.247" fill="#DBC8B9"/>
<path d="M56.327 515.719C54.8376 515.492 53.3487 515.266 51.8597 515.039C52.948 515.316 54.0359 515.592 55.1248 515.869C55.2946 515.912 55.4755 515.962 55.5889 516.096C55.8369 516.389 55.6209 516.897 55.8716 517.188C56.0082 516.627 56.3028 516.105 56.7127 515.7C56.8126 515.601 56.9243 515.501 56.959 515.364C56.9812 515.275 56.9681 515.182 56.9609 515.09C56.9238 514.607 57.0792 514.113 57.3852 513.737C58.2373 513.92 59.1231 513.945 59.984 513.813C59.1605 513.672 58.3577 513.568 57.5282 513.495C57.3167 513.477 57.0676 513.403 56.9184 513.541C56.8097 513.64 56.7658 514.12 56.7242 514.271C56.5919 514.754 56.4591 515.237 56.327 515.719Z" fill="#DBC8B9"/>
<path d="M54.1448 509.375C54.2023 510.127 54.3338 510.873 54.5377 511.6C54.2623 511.362 53.9869 511.125 53.7126 510.888C53.8982 510.379 53.8689 509.822 53.8367 509.281C53.8119 508.868 53.773 508.45 53.7675 508.035C54.1643 508.299 54.113 508.956 54.1448 509.375" fill="#FFFAE3"/>
<path d="M54.8304 514.001C54.889 513.783 54.9846 513.576 55.113 513.391C55.0651 513.903 55.0667 514.418 55.1172 514.929C54.0496 514.66 52.7899 514.512 51.7889 514.074C52.1247 513.945 54.7649 514.347 54.8304 514.001" fill="#FFFAE3"/>
<path d="M58.1107 510.061C57.7802 509.748 57.3906 509.496 56.9678 509.326C57.1649 509.254 57.211 509.003 57.2259 508.794C57.2581 508.354 57.2773 507.697 57.6485 508.399C57.7743 508.639 57.8297 508.936 57.9002 509.195C57.9497 509.375 57.9849 509.941 58.1107 510.061" fill="#FFFAE3"/>
<ellipse opacity="0.1" cx="42" cy="694" rx="13" ry="3" fill="#0D0D0D"/>
<ellipse opacity="0.1" cx="87" cy="705" rx="13" ry="3" fill="#0D0D0D"/>
<path d="M87.4027 707.521C90.6404 706.467 94.0409 705.163 96.0459 702.41C96.9058 701.228 97.452 699.841 97.8311 698.427C98.544 695.774 98.6657 692.972 98.2337 690.259L116.665 684.231C117.284 685.645 118.865 686.422 120.389 685.985L123.36 685.134C125.019 684.66 125.979 682.929 125.505 681.268L122.407 670.454C121.933 668.795 120.202 667.836 118.541 668.31L115.57 669.161C113.934 669.629 112.98 671.321 113.411 672.96L93.1659 679.58C90.4497 676.064 87.205 673.123 82.7885 672.571C80.0434 672.226 73.9996 673.188 71.4477 674.456C70.4547 674.95 69.7245 676.001 68.8122 676.638C68.3043 676.993 65.5576 678.807 64.9553 678.39C67.1918 679.932 69.6533 681.145 72.2387 681.98C67.5951 682.83 62.9999 683.961 58.492 685.363C64.5139 687.643 70.947 688.58 77.3197 689.502C76.9929 694.168 75.3515 698.738 72.6301 702.543C74.9937 703.372 77.4187 704.03 79.877 704.507C79.6699 706.453 79.1571 708.37 78.3631 710.16C81.4016 709.373 84.4163 708.493 87.4027 707.521" fill="#3E741A"/>
<path d="M96.046 702.41C96.9082 701.228 97.4544 699.841 97.8334 698.427C98.5464 695.774 98.6657 692.972 98.2338 690.259L116.667 684.231C117.284 685.645 118.865 686.422 120.389 685.985L123.361 685.134C124.809 684.72 125.723 683.351 125.618 681.907C125.512 681.915 125.406 681.93 125.297 681.961C124.53 682.177 123.929 683.16 123.049 683.424C122.097 683.706 121.011 683.67 120.104 683.247C117.994 682.264 116.836 679.942 116.317 677.673C116.401 679.213 116.385 681.003 115.188 681.979C114.813 682.284 114.359 682.472 113.91 682.655C110.574 684.026 107.236 685.395 103.898 686.764C102.364 687.393 100.78 688.034 99.1241 688.02C97.4658 688.007 95.7001 687.171 95.1027 685.624C95.1952 687.907 95.2837 690.213 94.8554 692.458C94.4294 694.702 93.4296 696.912 91.6784 698.379C90.4195 699.432 88.8325 700.051 87.2103 700.297C83.5456 700.857 79.7558 699.553 76.8016 697.312C76.463 697.053 76.1355 696.779 75.8147 696.499C75.0299 698.644 73.96 700.685 72.6302 702.543C74.9937 703.372 77.4187 704.03 79.8794 704.506C79.67 706.453 79.1571 708.367 78.3631 710.16C81.4017 709.373 84.4164 708.493 87.4028 707.521C90.6405 706.467 94.0409 705.163 96.046 702.41" fill="#346C26"/>
<path d="M75.8452 678.483C75.8254 677.872 76.308 677.302 76.8175 676.921C77.6649 676.281 78.67 675.873 79.7059 675.636C81.92 675.13 84.3054 675.42 86.3333 676.437C87.6759 677.112 88.8533 678.101 89.7624 679.293C90.0444 679.66 90.7417 680.871 90.7689 681.71C90.7858 682.232 90.5417 682.609 89.7732 682.548C89.3379 682.512 88.9706 682.221 88.6492 681.924C87.1737 680.568 85.8598 678.782 83.8939 678.398C82.1324 678.051 80.4043 678.945 78.6947 679.485C78.1689 679.65 77.6168 679.786 77.076 679.697C76.5327 679.606 76.0037 679.24 75.8755 678.706C75.8592 678.631 75.8476 678.557 75.8452 678.483" fill="#C6ECAE"/>
<path d="M119.016 670.642C119.012 670.502 119.031 670.363 119.084 670.225C119.282 669.724 119.935 669.488 120.436 669.684C121.57 669.648 122.466 676.774 122.683 677.767C122.74 678.024 122.793 678.294 122.801 678.56C122.811 678.86 122.763 679.152 122.593 679.398C122.34 679.57 121.979 679.492 121.749 679.293C121.516 679.096 121.384 678.807 121.276 678.521C120.442 676.36 120.4 673.936 119.418 671.837C119.241 671.457 119.029 671.044 119.016 670.642" fill="#C6ECAE"/>
<path d="M52.0891 693.047C48.8693 691.02 45.7594 688.815 42.7827 686.448C46.2224 685.973 49.7545 687.175 53.1684 686.542C55.1632 686.171 57.1913 685.186 59.1282 685.79C58.5358 684.53 57.6957 683.39 56.6656 682.453C57.4244 681.325 58.7945 680.638 60.1514 680.705C58.8496 677.882 57.342 675.153 55.6433 672.549C58.0721 672.082 60.4703 671.44 62.8117 670.639L39.1708 660.314C37.4218 659.55 35.385 660.349 34.6217 662.098L25.7007 682.525C24.9364 684.271 25.7349 686.308 27.4839 687.072L49.1258 696.524C49.9924 695.257 50.918 694.028 52.0891 693.047" fill="#3E741A"/>
<path d="M49.0933 696.504C49.9599 695.237 50.8864 694.01 52.0566 693.026C50.2572 691.894 48.4944 690.704 46.768 689.461C45.0627 689.531 43.3522 689.606 41.6877 689.251C39.9032 688.869 38.2599 688.01 36.6779 687.098C34.7175 685.964 32.7107 684.623 31.7713 682.563C30.4077 679.576 31.6791 676.131 32.5746 672.972C33.7178 668.928 34.3642 664.448 37.3151 661.455C37.7889 660.976 38.34 660.542 38.9378 660.219C37.2368 659.596 35.3229 660.396 34.5892 662.077L25.6703 682.503C24.9049 684.253 25.7034 686.29 27.4524 687.053L49.0933 696.504" fill="#346C26"/>
<path d="M41.1314 667.481C40.9944 667.189 40.9365 666.869 40.9953 666.549C41.1763 665.569 42.3397 665.05 43.3256 665.174C44.3114 665.299 45.1733 665.871 46.048 666.346C48.4022 667.623 51.0611 668.251 53.4348 669.494C53.8718 669.725 54.2097 669.995 54.3673 670.331C54.5151 670.647 54.5056 671.018 54.2762 671.47C53.9174 672.173 53.1224 672.581 52.3248 672.401C51.671 672.251 51.1277 671.815 50.5791 671.427C48.8612 670.219 46.8559 669.425 44.7771 669.127C43.9244 669.004 43.0397 668.96 42.2636 668.587C41.7832 668.356 41.3527 667.953 41.1314 667.481" fill="#C6ECAE"/>
<path d="M36.9448 666.726C36.7539 666.318 36.7457 665.833 36.851 665.388C37.0086 664.718 37.4607 664.078 38.1195 663.869C38.8783 663.628 39.3385 663.882 39.5558 664.346C39.9953 665.284 39.4463 667.088 38.3884 667.441C37.8927 667.607 37.3235 667.338 37.0415 666.899C37.0048 666.843 36.9732 666.786 36.9448 666.726Z" fill="#C6ECAE"/>
<ellipse opacity="0.1" cx="323.5" cy="665.5" rx="24.5" ry="9.5" fill="#0D0D0D"/>
<path d="M335.671 628.28C333.203 625.098 329.094 623.266 325.074 623.562C325.553 624.34 326.031 625.118 326.512 625.893C323.001 626.108 319.83 628.987 319.285 632.461C317.44 629.866 314.996 627.773 312.578 625.703C310.245 627.795 308.164 630.165 306.388 632.745C306.077 633.198 305.765 633.691 305.76 634.24C305.754 634.759 306.024 635.233 306.284 635.679C307.504 637.763 308.723 639.843 309.94 641.926C310.096 642.19 310.257 642.499 310.151 642.786C310.056 643.047 309.776 643.186 309.52 643.298C306.941 644.434 304.364 645.575 301.785 646.712C301.368 646.894 300.939 647.09 300.643 647.438C300.348 647.793 300.231 648.263 300.149 648.717C299.668 651.349 300.021 654.129 301.148 656.557C302.294 659.027 304.175 661.065 306.022 663.062C308.664 665.915 311.306 668.765 313.945 671.617C314.647 672.374 315.477 673.189 316.509 673.168C317.201 673.156 317.819 672.758 318.415 672.403C320.613 671.085 323.037 670.144 325.551 669.636C325.879 669.571 326.222 669.507 326.495 669.312C327.211 668.807 327.122 667.739 326.96 666.878C326.507 664.516 326.054 662.15 325.601 659.788C325.522 659.373 325.482 658.857 325.827 658.617C326.101 658.427 326.472 658.517 326.79 658.616C328.3 659.079 329.877 659.583 330.975 660.716C331.523 661.28 331.921 661.972 332.411 662.583C333.587 664.048 335.325 665.045 337.184 665.322C341.554 665.974 345.478 662.816 348.767 659.864C349.148 659.52 349.57 659.049 349.412 658.561C349.341 658.348 349.174 658.184 348.995 658.05C347.97 657.268 346.574 657.189 345.433 656.593C344.292 655.993 343.494 654.289 344.488 653.471C344.82 653.197 345.261 653.111 345.682 653.032C347.899 652.618 350.117 652.208 352.333 651.794C353.285 651.616 354.26 651.431 355.082 650.927C357.514 649.439 357.633 645.885 356.686 643.195C356.308 642.115 355.832 640.828 356.528 639.921C356.788 639.582 357.173 639.367 357.547 639.159C359.139 638.282 360.734 637.401 362.325 636.52C360.905 633.87 357.41 633.039 354.428 633.447C351.447 633.856 348.667 635.192 345.706 635.735C345.592 634.052 345.486 632.325 345.966 630.707C346.446 629.089 347.649 627.575 349.298 627.218C351.062 626.834 352.862 627.817 354.658 627.671C353.892 627.731 350.825 624.662 349.992 624.122C348.875 623.396 346.413 621.38 345.002 621.632C343.785 621.85 342.123 624.04 341.158 624.772C339.429 626.092 337.592 627.264 335.671 628.28" fill="#FFE9CC"/>
<path d="M342.79 639.039C345.298 639.13 347.796 639.445 350.25 639.982C346.519 642.937 342.976 646.125 339.645 649.522C342.991 646.708 347.556 645.729 351.024 643.07C351.263 642.889 351.5 642.691 351.64 642.424C351.764 642.18 351.797 641.9 351.827 641.629C351.953 640.42 352.083 639.21 352.209 638C350.611 638.273 348.981 638.36 347.36 638.259C346.27 638.194 345.083 637.989 344.372 637.16C343.976 636.699 343.782 636.1 343.62 635.51C343.125 633.696 342.846 631.82 342.795 629.941C342.842 631.459 342.243 632.979 342.287 634.52C342.332 635.999 342.526 637.579 342.79 639.039" fill="#DBC8B9"/>
<path d="M317.878 657.912C323.772 656.762 329.665 655.614 335.557 654.467C331.269 655.749 326.982 657.028 322.69 658.309C322.021 658.509 321.309 658.738 320.88 659.29C319.94 660.497 320.885 662.486 319.934 663.686C319.297 661.476 318.038 659.446 316.338 657.898C315.924 657.522 315.463 657.14 315.302 656.602C315.199 656.251 315.236 655.877 315.249 655.511C315.317 653.582 314.617 651.637 313.336 650.194C309.972 651.06 306.449 651.308 302.998 650.925C306.255 650.224 309.435 649.68 312.727 649.252C313.566 649.143 314.546 648.809 315.163 649.333C315.612 649.712 315.866 651.617 316.056 652.209C316.663 654.113 317.272 656.013 317.878 657.912Z" fill="#DBC8B9"/>
<path d="M325.522 632.284C325.417 635.288 325.016 638.283 324.324 641.21C325.382 640.218 326.439 639.227 327.492 638.237C326.669 636.244 326.694 634.018 326.733 631.86C326.763 630.208 326.849 628.537 326.803 626.883C325.266 628 325.579 630.612 325.522 632.284" fill="#FFFAE3"/>
<path d="M323.555 650.819C323.285 649.964 322.87 649.155 322.328 648.439C322.604 650.468 322.682 652.523 322.566 654.563C326.773 653.317 331.766 652.519 335.68 650.611C334.321 650.15 323.872 652.189 323.555 650.819" fill="#FFFAE3"/>
<path d="M309.84 635.673C311.104 634.369 312.614 633.303 314.27 632.554C313.473 632.302 313.248 631.307 313.155 630.48C312.953 628.733 312.769 626.118 311.406 628.977C310.945 629.95 310.773 631.143 310.535 632.188C310.368 632.913 310.321 635.17 309.84 635.673" fill="#FFFAE3"/>
<path d="M356.666 643.246C356.286 642.168 355.811 640.882 356.506 639.975C356.764 639.634 357.149 639.419 357.523 639.211C359.116 638.332 360.71 637.453 362.303 636.574C360.883 633.92 357.388 633.089 354.406 633.5C351.423 633.908 348.643 635.244 345.684 635.789C345.572 634.103 345.462 632.377 345.942 630.759C346.423 629.139 347.628 627.628 349.278 627.269C350.637 626.974 352.019 627.489 353.404 627.673C351.097 626.07 347.435 624.375 345.235 625.143C344.629 625.356 344.194 625.879 343.796 626.379C341.188 629.639 338.486 633.423 339.011 637.562C336.06 635.566 333.113 633.569 330.166 631.572C330.661 633.679 331.335 635.748 332.179 637.743C332.464 638.418 332.791 639.116 333.373 639.563C333.94 639.998 334.672 640.136 335.372 640.258C337.787 640.675 340.217 641.019 342.655 641.287C341.93 643.649 339.107 644.571 336.657 644.904C335.717 645.033 334.744 645.124 333.826 644.87C331.257 644.156 330.165 641.172 328.219 639.346C327.239 640.491 326.256 641.635 325.276 642.781C324.783 643.353 324.272 643.971 324.162 644.719C324.018 645.725 324.672 646.716 325.534 647.251C326.396 647.786 327.434 647.957 328.444 648.07C331.626 648.431 334.898 648.372 337.939 649.378C338.271 649.485 338.651 649.678 338.672 650.024C338.684 650.305 338.445 650.528 338.222 650.701C335.028 653.214 331.285 655.022 327.33 655.961C325.449 656.407 323.403 656.643 321.646 655.842C321.157 655.621 320.686 655.303 320.436 654.827C320.21 654.397 320.189 653.892 320.178 653.408C320.098 649.993 320.139 646.536 319.336 643.215C318.532 639.896 316.753 636.652 313.824 634.895C313.424 634.654 312.817 634.488 312.571 634.884C312.411 635.143 312.531 635.478 312.653 635.755C313.659 638.059 314.633 640.557 314.12 643.015C312.806 641.344 311.489 639.672 310.175 638.001C309.456 638.652 309.936 639.827 310.449 640.647C311.75 642.714 313.051 644.781 314.35 646.85C309.386 646.98 304.469 648.58 300.375 651.394C305.857 651.613 311.237 653.819 315.298 657.511C312.502 658.572 309.559 659.244 306.578 659.501C307.717 660.584 309.385 660.828 310.882 661.305C313.864 662.256 316.467 664.338 318.047 667.04C318.226 667.352 318.402 667.71 318.31 668.059C318.246 668.319 318.043 668.52 317.834 668.689C317.049 669.327 316.069 669.68 315.241 670.266C314.712 670.639 314.237 671.175 314.017 671.767C314.697 672.493 315.499 673.24 316.485 673.22C317.179 673.205 317.797 672.812 318.391 672.455C320.589 671.138 323.016 670.198 325.527 669.688C325.857 669.62 326.199 669.556 326.471 669.364C327.188 668.857 327.099 667.788 326.936 666.93C326.485 664.566 326.033 662.204 325.582 659.839C325.502 659.425 325.461 658.91 325.807 658.668C326.077 658.479 326.448 658.569 326.768 658.666C328.277 659.129 329.853 659.635 330.954 660.77C331.499 661.332 331.897 662.024 332.387 662.635C333.563 664.1 335.304 665.099 337.16 665.374C341.093 665.959 344.663 663.461 347.734 660.808C346.894 660.163 345.76 660.109 344.727 659.863C341.707 659.141 339.229 656.182 339.526 653.095C339.821 650.003 343.303 647.493 346.207 648.59C347.134 648.938 347.923 649.577 348.82 650C350.256 650.67 351.887 650.754 353.47 650.824C354.04 650.85 354.61 650.875 355.18 650.901C357.494 649.367 357.592 645.89 356.666 643.246" fill="#EDD9C0"/>
</g>
<defs>
<clipPath id="clip0_10_1509">
<rect width="375" height="812" fill="white"/>
</clipPath>
</defs>
</svg>
