<svg width="262" height="333" viewBox="0 0 262 333" fill="none" xmlns="http://www.w3.org/2000/svg">
<ellipse opacity="0.1" cx="126" cy="318.5" rx="75" ry="14.5" fill="#0D0D0D"/>
<path d="M65.3607 273.709C65.3607 259.961 76.506 248.816 90.2544 248.816C107.061 248.816 119.038 265.126 114.006 281.162L106.835 304.017C105.077 309.621 101.076 314.245 95.7829 316.791C81.6926 323.567 65.3607 313.299 65.3607 297.664V273.709Z" fill="#66341C"/>
<path d="M188.733 274.046C188.733 260.112 177.437 248.816 163.503 248.816C146.42 248.816 134.275 265.436 139.465 281.712L146.525 303.849C148.346 309.559 152.456 314.256 157.873 316.82C172.213 323.605 188.733 313.145 188.733 297.281V274.046Z" fill="#66341C"/>
<path d="M69.2547 172.688C80.5074 168.558 92.1338 179.37 88.2035 190.31L86.3965 195.341C84.4031 200.889 77.4686 202.999 72.1834 199.665C69.032 197.677 65.0511 197.542 61.9307 199.317L27.5812 218.858C19.8124 223.278 9.46038 219.774 5.84867 211.503C2.61854 204.105 6.14292 195.853 13.7206 193.072L69.2547 172.688Z" fill="#66341C"/>
<path d="M189.113 176.337C183.048 165.997 167.201 166.959 163.284 177.904L161.483 182.936C159.497 188.487 163.511 194.523 169.71 195.307C173.407 195.774 176.567 198.199 177.848 201.552L191.955 238.468C195.146 246.817 205.366 250.689 213.41 246.597C220.605 242.937 223.127 234.326 219.043 227.364L189.113 176.337Z" fill="#66341C"/>
<path fill-rule="evenodd" clip-rule="evenodd" d="M126.378 281.495H99.3306C74.4272 281.464 55.5995 258.924 60.0138 234.407L69.0256 184.355C69.9418 179.266 71.8358 174.404 74.6028 170.036L87.6754 149.401C95.0097 137.824 107.76 130.808 121.465 130.808H126.378H127.044H131.958C145.662 130.808 158.413 137.824 165.748 149.401L178.82 170.036C181.587 174.404 183.481 179.266 184.397 184.355L193.409 234.407C197.823 258.924 178.996 281.464 154.092 281.495H127.044H126.378Z" fill="#794023"/>
<path fill-rule="evenodd" clip-rule="evenodd" d="M126.978 255.272H126.444L114.274 255.272C89.3462 255.272 70.4902 232.718 74.9075 208.184L80.1793 178.904C81.0955 173.815 82.9895 168.953 85.7565 164.585L93.0754 153.032C100.335 141.574 112.9 134.583 126.444 134.441V134.439H126.558C126.609 134.439 126.66 134.439 126.711 134.44C126.763 134.439 126.814 134.439 126.865 134.439H126.978V134.441C140.523 134.583 153.088 141.574 160.348 153.032L167.666 164.585C170.433 168.953 172.327 173.815 173.244 178.904L178.515 208.184C182.933 232.718 164.077 255.272 139.148 255.272L126.978 255.272Z" fill="#66341C"/>
<ellipse rx="36.0583" ry="31.2046" transform="matrix(0.555 0.858649 -0.847784 0.48716 77.1779 46.3375)" fill="#794023"/>
<ellipse rx="27.9144" ry="24.1569" transform="matrix(0.555 0.858649 -0.847784 0.48716 77.1779 46.3376)" fill="#180500"/>
<ellipse rx="36.0583" ry="31.2046" transform="matrix(-0.895406 0.493507 0.51606 0.830509 197.169 75.1472)" fill="#794023"/>
<ellipse rx="27.9144" ry="24.1569" transform="matrix(-0.895406 0.493507 0.51606 0.830509 197.169 75.1472)" fill="#180500"/>
<ellipse cx="125.16" cy="104.03" rx="71.2584" ry="78.0715" transform="rotate(90 125.16 104.03)" fill="#794023"/>
<ellipse opacity="0.8" cx="125.16" cy="142.155" rx="25.8709" ry="24.0961" transform="rotate(90 125.16 142.155)" fill="#F7B380"/>
<ellipse cx="99.1363" cy="106.299" rx="7.71076" ry="9.98525" fill="#180500"/>
<ellipse cx="151.184" cy="106.299" rx="7.71076" ry="9.98525" fill="#180500"/>
<g filter="url(#filter0_d_10_1580)">
<ellipse cx="125.642" cy="134.893" rx="4.99263" ry="9.15653" transform="rotate(90 125.642 134.893)" fill="#180500"/>
</g>
<line x1="125.981" y1="139.886" x2="125.981" y2="151.989" stroke="black"/>
<path d="M131.907 154.41C127.403 151.161 124.85 151.203 120.341 154.41" stroke="black"/>
<defs>
<filter id="filter0_d_10_1580" x="112.485" y="129.9" width="26.3131" height="17.9852" filterUnits="userSpaceOnUse" color-interpolation-filters="sRGB">
<feFlood flood-opacity="0" result="BackgroundImageFix"/>
<feColorMatrix in="SourceAlpha" type="matrix" values="0 0 0 0 0 0 0 0 0 0 0 0 0 0 0 0 0 0 127 0" result="hardAlpha"/>
<feOffset dy="4"/>
<feGaussianBlur stdDeviation="2"/>
<feComposite in2="hardAlpha" operator="out"/>
<feColorMatrix type="matrix" values="0 0 0 0 0 0 0 0 0 0 0 0 0 0 0 0 0 0 0.25 0"/>
<feBlend mode="normal" in2="BackgroundImageFix" result="effect1_dropShadow_10_1580"/>
<feBlend mode="normal" in="SourceGraphic" in2="effect1_dropShadow_10_1580" result="shape"/>
</filter>
</defs>
</svg>
