<svg width="115" height="60" viewBox="0 0 115 60" fill="none" xmlns="http://www.w3.org/2000/svg">
<path d="M21.6849 20.5898C22.4186 19.1035 24.538 19.1035 25.2717 20.5898L29.0591 28.2625C29.3501 28.8522 29.9125 29.2612 30.5632 29.3563L39.0359 30.5947C40.6758 30.8344 41.3293 32.8501 40.1422 34.0064L34.0145 39.9747C33.5427 40.4342 33.3274 41.0965 33.4387 41.7455L34.8845 50.1748C35.1647 51.8088 33.4496 53.0547 31.9823 52.2831L24.4092 48.3004C23.8264 47.994 23.1302 47.994 22.5474 48.3004L14.9743 52.2831C13.507 53.0547 11.7919 51.8088 12.0721 50.1748L13.5179 41.7455C13.6292 41.0965 13.4139 40.4342 12.9421 39.9747L6.81444 34.0064C5.62726 32.8501 6.28082 30.8344 7.92065 30.5947L16.3934 29.3563C17.0441 29.2612 17.6065 28.8522 17.8975 28.2625L21.6849 20.5898Z" fill="url(#paint0_linear_21_1983)"/>
<path d="M89.5109 20.5898C90.2446 19.1035 92.3641 19.1035 93.0978 20.5898L96.8851 28.2625C97.1762 28.8522 97.7386 29.2612 98.3893 29.3563L106.862 30.5947C108.502 30.8344 109.155 32.8501 107.968 34.0064L101.841 39.9747C101.369 40.4342 101.153 41.0965 101.265 41.7455L102.711 50.1748C102.991 51.8088 101.276 53.0547 99.8084 52.2831L92.2353 48.3004C91.6525 47.994 90.9562 47.994 90.3734 48.3004L82.8003 52.2831C81.3331 53.0547 79.618 51.8088 79.8982 50.1748L81.3439 41.7455C81.4552 41.0965 81.2399 40.4342 80.7682 39.9747L74.6405 34.0064C73.4533 32.8501 74.1069 30.8344 75.7467 30.5947L84.2194 29.3563C84.8701 29.2612 85.4325 28.8522 85.7236 28.2625L89.5109 20.5898Z" fill="url(#paint1_linear_21_1983)"/>
<path d="M55.598 7.54632C56.3316 6.05998 58.4511 6.05998 59.1848 7.54632L62.9721 15.2191C63.2632 15.8088 63.8256 16.2177 64.4763 16.3128L72.949 17.5512C74.5889 17.7909 75.2424 19.8066 74.0552 20.9629L67.9276 26.9312C67.4558 27.3907 67.2405 28.053 67.3518 28.702L68.7975 37.1314C69.0778 38.7653 67.3627 40.0112 65.8954 39.2396L58.3223 35.257C57.7395 34.9505 57.0433 34.9505 56.4605 35.257L48.8874 39.2396C47.4201 40.0112 45.705 38.7653 45.9852 37.1314L47.431 28.702C47.5423 28.053 47.3269 27.3907 46.8552 26.9312L40.7275 20.9629C39.5403 19.8066 40.1939 17.7909 41.8337 17.5512L50.3065 16.3128C50.9572 16.2177 51.5195 15.8088 51.8106 15.2191L55.598 7.54632Z" fill="url(#paint2_linear_21_1983)"/>
<defs>
<linearGradient id="paint0_linear_21_1983" x1="3.91309" y1="16.9565" x2="43.0435" y2="54.7826" gradientUnits="userSpaceOnUse">
<stop stop-color="#FF7900"/>
<stop offset="1" stop-color="#FFF500"/>
</linearGradient>
<linearGradient id="paint1_linear_21_1983" x1="71.7391" y1="16.9565" x2="110.87" y2="54.7826" gradientUnits="userSpaceOnUse">
<stop stop-color="#FF7900"/>
<stop offset="1" stop-color="#FFF500"/>
</linearGradient>
<linearGradient id="paint2_linear_21_1983" x1="37.8262" y1="3.91306" x2="76.9566" y2="41.7391" gradientUnits="userSpaceOnUse">
<stop stop-color="#FF7900"/>
<stop offset="1" stop-color="#FFF500"/>
</linearGradient>
</defs>
</svg>
