<svg width="64" height="82" viewBox="0 0 64 82" fill="none" xmlns="http://www.w3.org/2000/svg">
<path d="M50.3889 43.1188L46.2572 43.1188L46.6921 50.8195L46.2572 57.6464L46.2572 72.174L50.3889 72.174L49.6822 66.8763L49.6822 59.9402L50.3889 43.1188Z" fill="#A6572F"/>
<ellipse rx="9.808" ry="8.42634" transform="matrix(0.940684 0.339283 0.435053 -0.900405 44.8921 34.2876)" fill="#B6C85C"/>
<ellipse rx="8.06439" ry="10.0318" transform="matrix(0.932939 -0.360035 -0.173146 -0.984896 42.5945 26.7838)" fill="#B6C85C"/>
<ellipse rx="8.14972" ry="8.56351" transform="matrix(0.0600939 -0.998193 -0.989627 0.143664 52.6201 24.0316)" fill="#B6C85C"/>
<ellipse rx="7.90413" ry="8.42634" transform="matrix(0.951854 -0.30655 -0.206136 -0.978523 48.8732 44.7937)" fill="#B6C85C"/>
<ellipse rx="7.90413" ry="8.42634" transform="matrix(0.951854 -0.30655 -0.206136 -0.978523 52.0575 40.3955)" fill="#B6C85C"/>
<ellipse rx="8.60372" ry="8.2807" transform="matrix(0.736331 0.676622 0.482392 -0.875956 53.6703 34.7228)" fill="#B6C85C"/>
<ellipse rx="8.60372" ry="8.2807" transform="matrix(0.736331 0.676622 0.482392 -0.875956 42.5916 41.0694)" fill="#B6C85C"/>
<path d="M18.3889 43.1188L14.2572 43.1188L14.6921 50.8195L14.2572 57.6464L14.2572 72.174L18.3889 72.174L17.6822 66.8763L17.6822 59.9402L18.3889 43.1188Z" fill="#A6572F"/>
<ellipse rx="9.808" ry="8.42634" transform="matrix(0.940684 0.339283 0.435053 -0.900405 12.8921 34.2876)" fill="#B6C85C"/>
<ellipse rx="8.06439" ry="10.0318" transform="matrix(0.932939 -0.360035 -0.173146 -0.984896 10.5945 26.7838)" fill="#B6C85C"/>
<ellipse rx="8.14972" ry="8.56351" transform="matrix(0.0600939 -0.998193 -0.989627 0.143664 20.6201 24.0316)" fill="#B6C85C"/>
<ellipse rx="7.90413" ry="8.42634" transform="matrix(0.951854 -0.30655 -0.206136 -0.978523 16.8732 44.7937)" fill="#B6C85C"/>
<ellipse rx="7.90413" ry="8.42634" transform="matrix(0.951854 -0.30655 -0.206136 -0.978523 20.0575 40.3955)" fill="#B6C85C"/>
<ellipse rx="8.60372" ry="8.2807" transform="matrix(0.736331 0.676622 0.482392 -0.875956 21.6703 34.7228)" fill="#B6C85C"/>
<ellipse rx="8.60372" ry="8.2807" transform="matrix(0.736331 0.676622 0.482392 -0.875956 10.5916 41.0694)" fill="#B6C85C"/>
<path d="M37.786 40.832L31.9923 40.832L32.6022 51.6304L31.9923 61.2034L31.9923 81.5748L37.786 81.5748L36.795 74.1462L36.795 64.42L37.786 40.832Z" fill="#A6572F"/>
<ellipse rx="13.7533" ry="11.8159" transform="matrix(0.940684 0.339283 0.435053 -0.900405 30.0781 28.4484)" fill="#A3B44C"/>
<ellipse rx="11.3083" ry="14.0672" transform="matrix(0.932939 -0.360035 -0.173146 -0.984896 26.8561 17.9261)" fill="#A3B44C"/>
<ellipse rx="11.428" ry="12.0082" transform="matrix(0.0600939 -0.998193 -0.989627 0.143664 40.9147 14.0669)" fill="#A3B44C"/>
<ellipse rx="11.0836" ry="11.8159" transform="matrix(0.951854 -0.30655 -0.206136 -0.978523 35.6604 43.1807)" fill="#A3B44C"/>
<ellipse rx="11.0836" ry="11.8159" transform="matrix(0.951854 -0.30655 -0.206136 -0.978523 40.1256 37.0133)" fill="#A3B44C"/>
<ellipse rx="12.0646" ry="11.6117" transform="matrix(0.736331 0.676622 0.482392 -0.875956 42.3873 29.0587)" fill="#A3B44C"/>
<ellipse rx="12.0646" ry="11.6117" transform="matrix(0.736331 0.676622 0.482392 -0.875956 26.8521 37.9583)" fill="#A3B44C"/>
</svg>
